<svg xmlns="http://www.w3.org/2000/svg" xmlns:xlink="http://www.w3.org/1999/xlink" width="128" zoomAndPan="magnify" viewBox="0 0 96 95.999999" height="128" preserveAspectRatio="xMidYMid meet" version="1.0"><defs><g/><clipPath id="22ba33f79a"><rect x="0" width="91" y="0" height="96"/></clipPath></defs><g transform="matrix(1, 0, 0, 1, 3, -0.000000000000008101)"><g clip-path="url(#22ba33f79a)"><g fill="#000000" fill-opacity="1"><g transform="translate(0.743047, 75.706856)"><g><path d="M 17.203125 -18.3125 C 17.722656 -16.257812 18.640625 -14.632812 19.953125 -13.4375 C 21.273438 -12.25 22.75 -11.394531 24.375 -10.875 C 26.007812 -10.363281 27.578125 -10.109375 29.078125 -10.109375 C 32.234375 -10.109375 34.769531 -10.613281 36.6875 -11.625 C 38.613281 -12.632812 39.578125 -14.164062 39.578125 -16.21875 C 39.578125 -17.789062 39.007812 -19.046875 37.875 -19.984375 C 36.738281 -20.921875 34.851562 -21.644531 32.21875 -22.15625 L 21.984375 -24.25 C 18.546875 -24.976562 15.539062 -26.03125 12.96875 -27.40625 C 10.40625 -28.78125 8.414062 -30.578125 7 -32.796875 C 5.59375 -35.015625 4.875 -37.71875 4.84375 -40.90625 C 4.84375 -44.425781 5.765625 -47.566406 7.609375 -50.328125 C 9.460938 -53.097656 12.203125 -55.285156 15.828125 -56.890625 C 19.460938 -58.503906 23.9375 -59.3125 29.25 -59.3125 C 35.40625 -59.3125 40.515625 -58.128906 44.578125 -55.765625 C 48.648438 -53.410156 51.273438 -50.03125 52.453125 -45.625 L 39.25 -41.28125 C 38.851562 -43.519531 37.742188 -45.253906 35.921875 -46.484375 C 34.109375 -47.710938 31.828125 -48.328125 29.078125 -48.328125 C 26.253906 -48.328125 23.914062 -47.800781 22.0625 -46.75 C 20.21875 -45.707031 19.296875 -44.160156 19.296875 -42.109375 C 19.296875 -40.609375 20.046875 -39.410156 21.546875 -38.515625 C 23.054688 -37.617188 25.367188 -36.859375 28.484375 -36.234375 L 37.984375 -34.078125 C 41.210938 -33.273438 43.851562 -32.195312 45.90625 -30.84375 C 47.957031 -29.488281 49.539062 -28.003906 50.65625 -26.390625 C 51.78125 -24.773438 52.5625 -23.160156 53 -21.546875 C 53.4375 -19.929688 53.65625 -18.46875 53.65625 -17.15625 C 53.65625 -13.269531 52.617188 -9.960938 50.546875 -7.234375 C 48.472656 -4.503906 45.601562 -2.429688 41.9375 -1.015625 C 38.28125 0.390625 34.03125 1.09375 29.1875 1.09375 C 25.601562 1.09375 22.140625 0.582031 18.796875 -0.4375 C 15.460938 -1.46875 12.519531 -3.082031 9.96875 -5.28125 C 7.425781 -7.476562 5.515625 -10.316406 4.234375 -13.796875 Z M 17.203125 -18.3125 "/></g></g></g><g fill="#000000" fill-opacity="1"><g transform="translate(59.235403, 75.706856)"><g><path d="M 5.4375 0 L 5.4375 -17.875 L 23.421875 -17.875 L 23.421875 0 Z M 5.4375 0 "/></g></g></g></g></g></svg>